<svg xmlns="http://www.w3.org/2000/svg" width="16" height="16" viewBox="48 37 90 90" fill="none">
    <path fill="#888888" d="M137.59 61.05c-23.26-23.26-57.19-32.3-88.95-23.7-8.6 31.75.44 65.68 23.7 88.95l.18.18a92.73 92.73 0 0 0 65.25-65.25z" />
    <path fill="#555555" d="m137.78 61.23-25.75 6.98A45.79 45.79 0 0 1 67.69 56.4L48.65 37.36c31.76-8.61 65.69.44 88.95 23.7l.18.18z" />
    <path fill="#222222" d="M137.78 61.23a92.73 92.73 0 0 1-65.25 65.25l7.04-26a45.75 45.75 0 0 1 32.21-32.21l26-7.05z" />
    <path fill="#BBBBBB" d="m79.5 100.74-6.98 25.75-.18-.18c-23.26-23.26-32.3-57.19-23.7-88.95L67.68 56.4a45.77 45.77 0 0 1 11.81 44.34z" />
</svg>